<svg height="512pt" viewBox="-33 0 512 512.00086" width="512pt" xmlns="http://www.w3.org/2000/svg"><path d="m132.109375 435.855469c10.355469 40.660156 47.210937 70.734375 91.09375 70.734375s80.738281-30.070313 91.089844-70.734375zm0 0" fill="#feca57"/><path d="m162.398438 435.855469h-30.289063c10.355469 40.660156 47.210937 70.734375 91.09375 70.734375 5.15625 0 10.210937-.429688 15.144531-1.226563-37.03125-6-66.8125-33.625-75.949218-69.507812zm0 0" fill="#f4b537"/><path d="m249.679688 70.527344v-36.035156c0-14.625-11.855469-26.480469-26.476563-26.480469-14.625 0-26.480469 11.855469-26.480469 26.480469v36.035156c10.730469-1.046875 42.316406-1.039063 52.957032 0zm0 0" fill="#576574"/><path d="m227.011719 34.488281c0-8.988281 4.484375-16.925781 11.335937-21.714843-4.292968-2.996094-9.511718-4.761719-15.144531-4.761719-14.625 0-26.480469 11.855469-26.480469 26.476562v36.039063c10.511719-1.027344 16.371094-.546875 30.289063-.671875zm0 0" fill="#3e4b5a"/><path d="m376.777344 267.230469v-62.617188c0-77.425781-63.351563-140.777343-140.777344-140.777343h-25.59375c-77.429688 0-140.777344 63.351562-140.777344 140.777343v62.617188c0 42.675781-15.714844 83.851562-44.148437 115.671875h395.445312c-28.433593-31.820313-44.148437-73-44.148437-115.671875zm0 0" fill="#feca57"/><path d="m99.917969 204.613281c0-76.644531 62.074219-139.480469 138.429687-140.746093-3.566406-.0625 1.238282-.011719-27.941406-.03125-77.429688 0-140.777344 63.351562-140.777344 140.777343v62.617188c0 42.671875-15.714844 83.847656-44.148437 115.667969h30.289062c28.429688-31.820313 44.148438-72.996094 44.148438-115.667969zm0 0" fill="#f4b537"/><path d="m426.863281 380.894531h-407.324219c-6.457031 0-11.695312 5.234375-11.695312 11.695313v33.578125c0 6.460937 5.238281 11.695312 11.695312 11.695312h407.324219c6.460938 0 11.695313-5.234375 11.695313-11.695312v-33.578125c0-6.460938-5.234375-11.695313-11.695313-11.695313zm0 0" fill="#f4b537"/><path d="m426.863281 407.574219h-407.324219c-6.457031 0-11.695312-5.234375-11.695312-11.695313v30.289063c0 6.460937 5.238281 11.695312 11.695312 11.695312h407.324219c6.460938 0 11.695313-5.234375 11.695313-11.695312v-30.289063c0 6.460938-5.234375 11.695313-11.695313 11.695313zm0 0" fill="#e59d1f"/><path d="m239.054688 497.078125c-4.082032.773437-6.769532 4.710937-5.996094 8.792969.769531 4.085937 4.710937 6.769531 8.789062 5.996094 36.628906-6.921876 66.578125-33.691407 77.796875-68.949219h106.921875c10.597656 0 19.21875-8.621094 19.21875-19.21875v-29.570313c0-10.597656-8.621094-19.21875-19.21875-19.21875h-2.523437c-24.117188-28.117187-38.25-63.796875-39.878907-100.851562-.183593-4.15625-3.734374-7.367188-7.847656-7.1875-4.152344.179687-7.371094 3.695312-7.1875 7.847656 1.59375 36.222656 14.136719 71.238281 35.660156 100.191406h-363.777343c23.203125-31.15625 35.824219-68.988281 35.824219-108.148437v-62.625c0-73.625 59.9375-133.257813 133.257812-133.257813h25.597656c73.359375 0 133.261719 59.671875 133.261719 133.257813v35.136719c0 4.152343 3.367187 7.523437 7.523437 7.523437s7.523438-3.371094 7.523438-7.523437v-35.136719c0-75.113281-56.128906-136.59375-127.101562-146.789063v-23.34375c0-18.75-15.253907-34.003906-34.003907-34.003906s-34.007812 15.253906-34.007812 34.003906v23.339844c-70.941407 10.191406-127.101563 71.648438-127.101563 146.792969v62.621093c0 39.765626-14.199218 78.035157-40.042968 108.148438h-2.523438c-10.597656 0-19.21875 8.625-19.21875 19.222656v29.566406c0 10.597657 8.621094 19.222657 19.21875 19.222657h106.925781c11.21875 35.253906 41.167969 62.023437 77.792969 68.949219 4.082031.769531 8.019531-1.914063 8.792969-5.996094.773437-4.085938-1.914063-8.019532-5.996094-8.792969-29.597656-5.59375-54.082031-26.398437-64.671875-54.160156h161.664062c-10.589843 27.761719-35.074218 48.566406-64.671874 54.160156zm-35.117188-463.074219c0-10.453125 8.503906-18.953125 18.957031-18.953125 10.449219 0 18.953125 8.503907 18.953125 18.953125v21.953125c-1.871094-.078125-4.242187-.128906-6.15625-.128906h-25.597656c-1.980469 0-4.367188.054687-6.15625.128906zm-72.140625 393.863282h-112.578125c-2.296875 0-4.167969-1.871094-4.167969-4.171876v-29.566406c0-2.300781 1.871094-4.171875 4.167969-4.171875h407.347656c2.300782 0 4.171875 1.871094 4.171875 4.171875v29.566406c0 2.300782-1.871093 4.171876-4.171875 4.171876zm0 0"/></svg>